# xmcd
#
# Track frame offsets: 
#        150
#        22371
#        35335
#        53337
#        70898
#        86417
#        105184
#        122817
#        139131
#        157545
#        171582
#        187913
#        205497
#        224335
#        245678
#        260742
#        277326
#        294968
#        313233
#        329075
#
# Disc length: 4626 seconds
#
# Revision: 4
# Processed by: cddbd v1.5.2PL0 Copyright (c) Steve Scherf et al.
# Submitted via: ExactAudioCopyFreeDBPlugin 1.0
#
DISCID=34121014
DTITLE=Various Artist - Best Country Hits of Today [CD 2)
DYEAR=2006
DGENRE=Country
TTITLE0=(covered from Kid Rock and Sheryl Crow) - Picture
TTITLE1=(covered from Shania Twain) - Up
TTITLE2=(covered from Martina McBride) - Concrete Angel
TTITLE3=(covered from Darryl Worley) - Have you forgotten?
TTITLE4=(covered from Lonestar) - My Front Porch looking in
TTITLE5=(covered from Keith Urban) - Raining on Sunday
TTITLE6=(covered from Brooks and Dunn) - Red Dirt Road
TTITLE7=(covered from Gary Allan) - The One
TTITLE8=(covered from Montgomery Gentry) - Speed
TTITLE9=(covered from George Strait) - Tell me something bad about Tul
TTITLE9=sa
TTITLE10=(covered from Alan Jackson) - That'd be alright
TTITLE11=(covered from Kenny Chesney) - Big Star
TTITLE12=(covered from Tim McGraw) - She's my Kind of Rain
TTITLE13=(covered from Shania Twain) - Forever and for aways
TTITLE14=(covered from Toby Keith and Willie Nelson) - Beer for my Horse
TTITLE14=s
TTITLE15=(covered from Diamond Rio) - Beautiful Mess
TTITLE16=(covered from Sara Evans) - I keep looking
TTITLE17=(covered from Tim McGraw) - Red Rag Top
TTITLE18=(covered from Rascal Flatts) - These Days
TTITLE19=(covered from Toby Keith) - Who's your Daddy?
EXTD=Not Original Artists!\nCovered from the Cream of the best Singers
EXTD=and Musicians from Nashville, Tennessee
EXTT0=
EXTT1=
EXTT2=
EXTT3=
EXTT4=
EXTT5=
EXTT6=
EXTT7=
EXTT8=
EXTT9=
EXTT10=
EXTT11=
EXTT12=
EXTT13=
EXTT14=
EXTT15=
EXTT16=
EXTT17=
EXTT18=
EXTT19=
PLAYORDER=
